<?xml version="1.0" encoding="UTF-8" standalone="no"?>
<svg
   xmlns:dc="http://purl.org/dc/elements/1.1/"
   xmlns:cc="http://creativecommons.org/ns#"
   xmlns:rdf="http://www.w3.org/1999/02/22-rdf-syntax-ns#"
   xmlns:svg="http://www.w3.org/2000/svg"
   xmlns="http://www.w3.org/2000/svg"
   xmlns:xlink="http://www.w3.org/1999/xlink"
   xmlns:sodipodi="http://sodipodi.sourceforge.net/DTD/sodipodi-0.dtd"
   xmlns:inkscape="http://www.inkscape.org/namespaces/inkscape"
   width="132.004"
   height="132"
   version="1.1"
   id="svg28"
   sodipodi:docname="Instagram_logo_2016.svg"
   inkscape:version="1.0.2 (e86c870879, 2021-01-15)">
  <metadata
     id="metadata32">
    <rdf:RDF>
      <cc:Work
         rdf:about="">
        <dc:format>image/svg+xml</dc:format>
        <dc:type
           rdf:resource="http://purl.org/dc/dcmitype/StillImage" />
      </cc:Work>
    </rdf:RDF>
  </metadata>
  <sodipodi:namedview
     pagecolor="#ffffff"
     bordercolor="#666666"
     borderopacity="1"
     objecttolerance="10"
     gridtolerance="10"
     guidetolerance="10"
     inkscape:pageopacity="0"
     inkscape:pageshadow="2"
     inkscape:window-width="1358"
     inkscape:window-height="716"
     id="namedview30"
     showgrid="false"
     inkscape:zoom="3.8106061"
     inkscape:cx="66.001999"
     inkscape:cy="66"
     inkscape:window-x="0"
     inkscape:window-y="0"
     inkscape:window-maximized="1"
     inkscape:current-layer="svg28" />
  <defs
     id="defs20">
    <linearGradient
       id="b">
      <stop
         offset="0"
         stop-color="#3771c8"
         id="stop2" />
      <stop
         stop-color="#3771c8"
         offset=".128"
         id="stop4" />
      <stop
         offset="1"
         stop-color="#60f"
         stop-opacity="0"
         id="stop6" />
    </linearGradient>
    <linearGradient
       id="a">
      <stop
         offset="0"
         stop-color="#fd5"
         id="stop9" />
      <stop
         offset=".1"
         stop-color="#fd5"
         id="stop11" />
      <stop
         offset=".5"
         stop-color="#ff543e"
         id="stop13" />
      <stop
         offset="1"
         stop-color="#c837ab"
         id="stop15" />
    </linearGradient>
    <radialGradient
       id="c"
       cx="158.429"
       cy="578.088"
       r="65"
       xlink:href="#a"
       gradientUnits="userSpaceOnUse"
       gradientTransform="matrix(0 -1.98198 1.8439 0 -1031.402 454.004)"
       fx="158.429"
       fy="578.088" />
    <radialGradient
       id="d"
       cx="147.694"
       cy="473.455"
       r="65"
       xlink:href="#b"
       gradientUnits="userSpaceOnUse"
       gradientTransform="matrix(0.17394,0.86872,-3.5818,0.71718,1681.5302,-455.83929)"
       fx="147.694"
       fy="473.455" />
  </defs>
  <path
     id="path22"
     style="fill:#333333;fill-opacity:1"
     d="M 66.033203 1 C 38.891203 1 30.953156 1.02825 29.410156 1.15625 C 23.840156 1.61925 20.375609 2.4969531 16.599609 4.3769531 C 13.689609 5.8219531 11.393906 7.49575 9.1289062 9.84375 C 5.0039062 14.12575 2.5046094 19.39425 1.5996094 25.65625 C 1.1596094 28.69625 1.0318594 29.31575 1.0058594 44.84375 C 0.99585938 50.01975 1.0058594 56.83175 1.0058594 65.96875 C 1.0058594 93.08875 1.0340625 101.01859 1.1640625 102.55859 C 1.6140625 107.97859 2.465625 111.38914 4.265625 115.11914 C 7.705625 122.25914 14.275625 127.61914 22.015625 129.61914 C 24.695625 130.30914 27.655078 130.68914 31.455078 130.86914 C 33.065078 130.93914 49.474531 130.98828 65.894531 130.98828 C 82.314531 130.98828 98.734688 130.96867 100.30469 130.88867 C 104.70469 130.68167 107.26094 130.33938 110.08594 129.60938 C 117.87594 127.59937 124.32594 122.31812 127.83594 115.07812 C 129.60094 111.43812 130.49539 107.89872 130.90039 102.76172 C 130.98839 101.64172 131.02539 83.784172 131.02539 65.951172 C 131.02539 48.115172 130.98448 30.291875 130.89648 29.171875 C 130.48648 23.951875 129.59153 20.442422 127.76953 16.732422 C 126.27453 13.695422 124.61508 11.426422 122.20508 9.1074219 C 117.90408 4.9994219 112.64495 2.4997031 106.37695 1.5957031 C 103.33995 1.1567031 102.73336 1.027 87.193359 1 L 66.033203 1 z M 65.988281 18 L 66.003906 18 C 79.022144 18.000069 80.662406 18.056204 85.779297 18.289062 C 90.889297 18.523063 94.379453 19.332531 97.439453 20.519531 C 100.59945 21.744531 103.26945 23.384687 105.93945 26.054688 C 108.60945 28.722687 110.24852 31.401594 111.47852 34.558594 C 112.65852 37.610594 113.46898 41.097031 113.70898 46.207031 C 113.93898 51.327031 113.99805 52.964 113.99805 66 C 113.99805 79.036 113.93898 80.667109 113.70898 85.787109 C 113.46898 90.895109 112.65852 94.3845 111.47852 97.4375 C 110.24852 100.5935 108.60945 103.27145 105.93945 105.93945 C 103.27245 108.60945 100.59741 110.25447 97.441406 111.48047 C 94.387406 112.66747 90.895156 113.47694 85.785156 113.71094 C 80.665156 113.94394 79.035047 114 65.998047 114 C 52.963047 114 51.327031 113.94394 46.207031 113.71094 C 41.098031 113.47694 37.610641 112.66747 34.556641 111.48047 C 31.401641 110.25447 28.723641 108.60945 26.056641 105.93945 C 23.387641 103.27145 21.746531 100.5945 20.519531 97.4375 C 19.333531 94.3855 18.524062 90.897109 18.289062 85.787109 C 18.057063 80.667109 18 79.036 18 66 C 18 52.964 18.060062 51.327031 18.289062 46.207031 C 18.519063 41.099031 19.329531 37.609641 20.519531 34.556641 C 21.749531 31.400641 23.388594 28.722687 26.058594 26.054688 C 28.726594 23.385688 31.4055 21.745531 34.5625 20.519531 C 37.6145 19.332531 41.102891 18.523063 46.212891 18.289062 C 51.329782 18.056204 52.974029 18.000069 65.988281 18 z M 61.697266 26.638672 C 52.751266 26.648672 51.035422 26.708203 46.607422 26.908203 C 41.927422 27.123203 39.387313 27.9025 37.695312 28.5625 C 35.455313 29.4345 33.855781 30.474297 32.175781 32.154297 C 30.495781 33.834297 29.452031 35.435781 28.582031 37.675781 C 27.925031 39.367781 27.143687 41.907891 26.929688 46.587891 C 26.699687 51.647891 26.654297 53.158563 26.654297 65.976562 C 26.654297 78.794562 26.699687 80.315 26.929688 85.375 C 27.142687 90.055 27.925031 92.595156 28.582031 94.285156 C 29.454031 96.526156 30.495781 98.122734 32.175781 99.802734 C 33.855781 101.48273 35.455312 102.52258 37.695312 103.39258 C 39.388312 104.04958 41.927422 104.83088 46.607422 105.04688 C 51.667422 105.27688 53.186906 105.32617 66.003906 105.32617 C 78.819906 105.32617 80.340391 105.27688 85.400391 105.04688 C 90.080391 104.83288 92.6225 104.05258 94.3125 103.39258 C 96.5535 102.52258 98.148125 101.48273 99.828125 99.802734 C 101.50813 98.123734 102.54992 96.529062 103.41992 94.289062 C 104.07692 92.599062 104.85827 90.058906 105.07227 85.378906 C 105.30227 80.318906 105.35352 78.798281 105.35352 65.988281 C 105.35352 53.178281 105.30227 51.659609 105.07227 46.599609 C 104.85927 41.919609 104.07692 39.379453 103.41992 37.689453 C 102.54792 35.449453 101.50813 33.849922 99.828125 32.169922 C 98.149125 30.489922 96.5525 29.448125 94.3125 28.578125 C 92.6205 27.921125 90.080391 27.139781 85.400391 26.925781 C 80.339391 26.695781 78.819906 26.650391 66.003906 26.650391 C 64.401906 26.650391 62.975266 26.648391 61.697266 26.650391 L 61.697266 26.638672 z M 91.626953 34.617188 C 94.806953 34.617187 97.386719 37.198906 97.386719 40.378906 C 97.386719 43.558906 94.806953 46.138672 91.626953 46.138672 C 88.446953 46.138672 85.865234 43.558906 85.865234 40.378906 C 85.865234 37.197906 88.446953 34.619141 91.626953 34.619141 L 91.626953 34.617188 z M 66.003906 41.349609 C 79.616906 41.349609 90.650391 52.387 90.650391 66 C 90.650391 79.613 79.616906 90.644531 66.003906 90.644531 C 52.390906 90.644531 41.353516 79.613 41.353516 66 C 41.353516 52.387 52.390906 41.349609 66.003906 41.349609 z M 66.003906 50 C 57.166906 50 50.003906 57.163 50.003906 66 C 50.003906 74.836 57.166906 82 66.003906 82 C 74.839906 82 82.003906 74.836 82.003906 66 C 82.003906 57.163 74.839906 50 66.003906 50 z " />
</svg>
