<?xml version="1.0" encoding="UTF-8" standalone="no"?>
<svg
   xmlns:dc="http://purl.org/dc/elements/1.1/"
   xmlns:cc="http://creativecommons.org/ns#"
   xmlns:rdf="http://www.w3.org/1999/02/22-rdf-syntax-ns#"
   xmlns:svg="http://www.w3.org/2000/svg"
   xmlns="http://www.w3.org/2000/svg"
   xmlns:sodipodi="http://sodipodi.sourceforge.net/DTD/sodipodi-0.dtd"
   xmlns:inkscape="http://www.inkscape.org/namespaces/inkscape"
   width="120"
   height="120"
   viewBox="0 0 120 120"
   version="1.1"
   id="svg5"
   inkscape:version="1.0.2 (e86c870879, 2021-01-15)"
   sodipodi:docname="twitter.svg">
  <metadata
     id="metadata7">
    <rdf:RDF>
      <cc:Work
         rdf:about="">
        <dc:format>image/svg+xml</dc:format>
        <dc:type
           rdf:resource="http://purl.org/dc/dcmitype/StillImage" />
      </cc:Work>
    </rdf:RDF>
  </metadata>
  <sodipodi:namedview
     id="namedview7"
     pagecolor="#505050"
     bordercolor="#eeeeee"
     borderopacity="1"
     inkscape:pageshadow="0"
     inkscape:pageopacity="0"
     inkscape:pagecheckerboard="0"
     inkscape:document-units="px"
     showgrid="false"
     fit-margin-top="0"
     fit-margin-left="0"
     fit-margin-right="0"
     fit-margin-bottom="0"
     inkscape:zoom="3.1996582"
     inkscape:cx="82.352547"
     inkscape:cy="63.913077"
     inkscape:window-width="1358"
     inkscape:window-height="716"
     inkscape:window-x="0"
     inkscape:window-y="0"
     inkscape:window-maximized="1"
     inkscape:current-layer="layer1"
     inkscape:document-rotation="0" />
  <defs
     id="defs2" />
  <g
     inkscape:label="Layer 1"
     inkscape:groupmode="layer"
     id="layer1"
     transform="translate(257.03427,223.8851)">
    <path
       style="fill:#333333;stroke:none;stroke-width:0.0625492;fill-opacity:1"
       d="m -239.86849,-223.89203 c -2.20385,0.28929 -4.25006,0.61634 -6.31797,1.50125 -4.87963,2.08809 -8.84393,6.58506 -10.20357,11.73157 -0.87839,3.32485 -0.68086,6.72331 -0.68086,10.13216 v 14.38516 48.09649 11.3205 c 0,2.32226 -0.1441,4.69832 0.14292,7.00495 0.38293,3.07717 1.60658,6.00424 3.42334,8.50601 0.82044,1.13017 1.80558,2.17591 2.87682,3.06966 2.38288,1.98891 5.21183,3.36113 8.25715,3.96968 2.14698,0.42906 4.32806,0.34087 6.50563,0.34087 h 8.8827 49.66801 15.88876 c 3.09455,0 6.32548,0.26519 9.38312,-0.26581 7.57907,-1.31656 13.74753,-7.55784 14.87101,-15.18261 0.42537,-2.88891 0.20455,-5.90292 0.20455,-8.81873 v -14.88551 -46.28271 -11.75831 c 0,-2.13407 0.13011,-4.31805 -0.0732,-6.44205 -0.32465,-3.3964 -1.63954,-6.68184 -3.72072,-9.38163 -0.88327,-1.14521 -1.89789,-2.17141 -3.02449,-3.07692 -2.58537,-2.07802 -5.77688,-3.438 -9.07036,-3.84768 -2.04364,-0.25423 -4.13546,-0.14289 -6.19286,-0.14289 h -8.38226 -48.60459 -15.88876 -5.192 c -0.90134,0 -1.85848,-0.0908 -2.75238,0.0265 m 83.63493,31.80844 c -0.60991,2.63543 -2.51155,5.19855 -4.50391,6.9521 -0.70185,0.61788 -1.46064,1.28003 -2.3145,1.679 v 0.0626 c 3.13897,-0.39703 5.917,-1.42989 8.88269,-2.43923 -0.27336,0.72051 -0.91516,1.39924 -1.38933,2.00142 -1.14599,1.45596 -2.41146,2.82324 -3.80266,4.04748 -0.57112,0.50229 -1.1535,0.9867 -1.75152,1.45641 -0.24146,0.18976 -0.65744,0.39665 -0.77567,0.69361 -0.11135,0.28045 -0.0375,0.69737 -0.0375,0.99508 v 2.25159 c 0,1.82911 -0.24647,3.69624 -0.52671,5.50389 -0.90078,5.80579 -3.0001,11.37929 -5.94265,16.44912 -4.03599,6.95304 -10.06496,12.77403 -17.17612,16.52543 -13.84512,7.30391 -32.0537,6.65845 -45.16411,-2.01518 v -0.0625 c 6.3525,0.80244 13.00945,-0.49347 18.64114,-3.54563 1.56592,-0.84872 3.15623,-1.78564 4.5039,-2.95897 -4.89931,-0.003 -9.65905,-2.69065 -12.47462,-6.62968 -0.83109,-1.1627 -1.97189,-2.85201 -2.1005,-4.31555 2.1827,0.53788 4.80259,0.42968 6.94351,-0.25018 v -0.0625 c -1.55754,-0.12384 -3.23023,-0.93441 -4.56645,-1.69807 -4.97469,-2.84389 -7.94438,-8.18272 -7.94438,-13.87543 2.32901,0.96943 4.48232,1.93887 7.06862,1.93887 v -0.0625 c -1.49342,-0.57434 -2.87793,-2.32339 -3.80786,-3.56502 -3.66918,-4.89896 -4.24243,-12.04219 -1.00881,-17.32474 0.84779,0.68405 1.49848,1.71134 2.25439,2.50177 1.51881,1.58806 3.15035,3.06835 4.87678,4.42744 5.19663,4.09089 11.26176,6.95698 17.70283,8.43483 2.47339,0.56753 5.08966,1.02254 7.63161,1.02254 -0.5167,-1.37697 -0.441,-3.06504 -0.37783,-4.50318 0.38972,-8.88465 8.75258,-15.74219 17.51768,-14.68 2.3708,0.28727 4.68843,1.07176 6.69329,2.38031 0.77192,0.50379 1.50505,1.05906 2.1894,1.67781 0.2571,0.23272 0.56611,0.71607 0.93831,0.74409 0.85574,0.0643 2.00424,-0.44144 2.81494,-0.69062 2.48277,-0.76316 4.71721,-1.86081 7.00607,-3.06623 z"
       id="path862" />
  </g>
</svg>
