<?xml version="1.0" encoding="UTF-8" standalone="no"?>
<svg
   xmlns:dc="http://purl.org/dc/elements/1.1/"
   xmlns:cc="http://creativecommons.org/ns#"
   xmlns:rdf="http://www.w3.org/1999/02/22-rdf-syntax-ns#"
   xmlns:svg="http://www.w3.org/2000/svg"
   xmlns="http://www.w3.org/2000/svg"
   xmlns:sodipodi="http://sodipodi.sourceforge.net/DTD/sodipodi-0.dtd"
   xmlns:inkscape="http://www.inkscape.org/namespaces/inkscape"
   enable-background="new 0 0 128 128"
   version="1.1"
   viewBox="0 0 128 128"
   xml:space="preserve"
   id="svg4"
   sodipodi:docname="earth-1681722.svg"
   inkscape:version="1.0.2 (e86c870879, 2021-01-15)"><metadata
   id="metadata10"><rdf:RDF><cc:Work
       rdf:about=""><dc:format>image/svg+xml</dc:format><dc:type
         rdf:resource="http://purl.org/dc/dcmitype/StillImage" /></cc:Work></rdf:RDF></metadata><defs
   id="defs8" /><sodipodi:namedview
   pagecolor="#ffffff"
   bordercolor="#666666"
   borderopacity="1"
   objecttolerance="10"
   gridtolerance="10"
   guidetolerance="10"
   inkscape:pageopacity="0"
   inkscape:pageshadow="2"
   inkscape:window-width="1358"
   inkscape:window-height="716"
   id="namedview6"
   showgrid="false"
   inkscape:zoom="3.9296875"
   inkscape:cx="64"
   inkscape:cy="64"
   inkscape:window-x="0"
   inkscape:window-y="0"
   inkscape:window-maximized="1"
   inkscape:current-layer="svg4" />
<path
   d="m67.399 12.109c-31.345-2.004-57.294 23.944-55.29 55.29 1.656 25.909 22.584 46.836 48.493 48.493 31.345 2.004 57.294-23.944 55.29-55.29-1.657-25.909-22.585-46.837-48.493-48.493zm20.146 77.693c2.045-7.026 3.266-15.108 3.43-23.802h20.975c-0.46 11.147-4.739 21.319-11.561 29.251-3.13-2.193-7.505-4.047-12.844-5.449zm-59.933 5.449c-6.822-7.932-11.102-18.104-11.561-29.251h20.975c0.163 8.694 1.384 16.776 3.43 23.802-5.341 1.403-9.716 3.256-12.844 5.449zm12.833-57.018c-2.04 7.019-3.257 15.088-3.42 23.767h-20.974c0.457-11.094 4.698-21.222 11.463-29.138 3.183 2.157 7.589 3.985 12.931 5.371zm21.555 23.767h-20.975c0.172-8.277 1.403-16.09 3.414-22.848 5.406 1.09 11.401 1.711 17.561 1.823v21.025zm0 4v21.026c-6.173 0.112-12.167 0.742-17.553 1.846-2.016-6.764-3.249-14.585-3.422-22.872h20.975zm4 0h20.975c-0.172 8.287-1.406 16.108-3.421 22.872-5.389-1.104-11.382-1.734-17.554-1.846v-21.026zm0-4v-21.026c6.16-0.111 12.155-0.733 17.561-1.823 2.011 6.759 3.242 14.572 3.414 22.849h-20.975zm0-25.025v-20.773c6.569 1.247 12.446 8.542 16.3 19.128-5.026 0.98-10.585 1.538-16.3 1.645zm-4-20.773v20.773c-5.715-0.107-11.274-0.665-16.3-1.645 3.854-10.586 9.731-17.882 16.3-19.128zm0 74.824v20.773c-6.565-1.246-12.438-8.532-16.292-19.106 5.009-0.994 10.566-1.559 16.292-1.667zm4 20.772v-20.772c5.725 0.108 11.281 0.673 16.292 1.667-3.854 10.573-9.727 17.86-16.292 19.105zm24.975-49.798c-0.163-8.679-1.38-16.748-3.419-23.767 5.342-1.387 9.748-3.214 12.93-5.371 6.765 7.915 11.006 18.044 11.463 29.138h-20.974zm6.746-32.121c-2.8 1.774-6.718 3.339-11.387 4.537-2.51-7.096-5.917-12.87-9.931-16.783 8.163 2.186 15.475 6.472 21.318 12.246zm-56.054 4.538c-4.669-1.198-8.587-2.763-11.387-4.537 5.842-5.775 13.155-10.06 21.319-12.246-4.015 3.912-7.423 9.687-9.932 16.783zm-11.286 63.801c2.74-1.8 6.628-3.387 11.298-4.6 2.508 7.08 5.911 12.842 9.919 16.749-8.117-2.174-15.391-6.425-21.217-12.149zm55.94-4.6c4.669 1.213 8.558 2.8 11.298 4.6-5.826 5.725-13.099 9.976-21.217 12.149 4.008-3.907 7.41-9.669 9.919-16.749z"
   id="path2"
   style="fill:#333333;fill-opacity:1" />
</svg>
