<?xml version="1.0" encoding="UTF-8" standalone="no"?>
<svg
   xmlns:dc="http://purl.org/dc/elements/1.1/"
   xmlns:cc="http://creativecommons.org/ns#"
   xmlns:rdf="http://www.w3.org/1999/02/22-rdf-syntax-ns#"
   xmlns:svg="http://www.w3.org/2000/svg"
   xmlns="http://www.w3.org/2000/svg"
   xmlns:sodipodi="http://sodipodi.sourceforge.net/DTD/sodipodi-0.dtd"
   xmlns:inkscape="http://www.inkscape.org/namespaces/inkscape"
   width="120"
   height="120"
   viewBox="0 0 120 120"
   version="1.1"
   id="svg5"
   inkscape:version="1.0.2 (e86c870879, 2021-01-15)"
   sodipodi:docname="whatsapp.svg">
  <metadata
     id="metadata7">
    <rdf:RDF>
      <cc:Work
         rdf:about="">
        <dc:format>image/svg+xml</dc:format>
        <dc:type
           rdf:resource="http://purl.org/dc/dcmitype/StillImage" />
      </cc:Work>
    </rdf:RDF>
  </metadata>
  <sodipodi:namedview
     id="namedview7"
     pagecolor="#505050"
     bordercolor="#eeeeee"
     borderopacity="1"
     inkscape:pageshadow="0"
     inkscape:pageopacity="0"
     inkscape:pagecheckerboard="0"
     inkscape:document-units="px"
     showgrid="false"
     fit-margin-top="0"
     fit-margin-left="0"
     fit-margin-right="0"
     fit-margin-bottom="0"
     inkscape:zoom="3.1996582"
     inkscape:cx="82.352547"
     inkscape:cy="63.913077"
     inkscape:window-width="1358"
     inkscape:window-height="716"
     inkscape:window-x="0"
     inkscape:window-y="0"
     inkscape:window-maximized="1"
     inkscape:current-layer="layer1"
     inkscape:document-rotation="0" />
  <defs
     id="defs2" />
  <g
     inkscape:label="Layer 1"
     inkscape:groupmode="layer"
     id="layer1"
     transform="translate(257.03427,223.8851)">
    <path
       style="fill:#333333;stroke:none;stroke-width:0.120094;fill-opacity:1"
       d="m -254.3085,-105.87517 c 7.34668,-2.38933 14.70181,-4.82333 22.09914,-7.05138 2.17424,-0.65483 4.30321,-1.46372 6.48562,-2.092 0.77635,-0.22348 1.70848,-0.71823 2.52218,-0.71463 0.69829,0.003 1.45014,0.61472 2.04177,0.93462 1.18723,0.64198 2.4721,1.18944 3.72322,1.69416 4.09159,1.65093 8.27409,2.77252 12.61092,3.55295 17.40163,3.13133 35.96551,-3.17132 48.52202,-15.41901 4.87887,-4.75885 8.84759,-10.50587 11.68721,-16.69 10.92358,-23.79073 3.67974,-52.94337 -17.33209,-68.70114 -5.53812,-4.15332 -11.8389,-7.28317 -18.49602,-9.18259 -6.95907,-1.98554 -14.32517,-2.52032 -21.49862,-1.75245 -6.90442,0.73909 -13.80944,2.67512 -19.93727,5.9871 -6.82563,3.68921 -12.97363,8.48372 -17.84157,14.56734 -10.51895,13.14616 -14.9387,30.80885 -11.29273,47.31343 0.90977,4.11831 2.20219,8.18978 4.00625,12.00848 0.61599,1.30388 1.29072,2.57942 1.98473,3.84272 0.2461,0.44803 0.79869,1.08004 0.77948,1.61202 -0.037,1.02636 -0.76434,2.46222 -1.12557,3.43154 -0.73612,1.97516 -1.36414,4.00447 -2.03084,6.00424 -2.29532,6.88483 -4.69717,13.74215 -6.90783,20.6546 m 14.65269,-14.41018 c 0.12551,-1.42877 0.90691,-2.96034 1.36114,-4.32306 0.93357,-2.80026 1.81633,-5.62681 2.80551,-8.40594 0.43994,-1.23579 1.57264,-3.2537 1.47488,-4.56322 -0.0859,-1.15054 -1.66188,-2.72965 -2.25448,-3.72263 -1.51595,-2.53968 -2.79265,-5.2596 -3.78435,-8.04569 -3.58367,-10.06779 -3.71206,-21.37126 -0.12011,-31.46223 2.44448,-6.86705 6.40215,-12.99366 11.56698,-18.13269 4.16725,-4.14653 9.26314,-7.3582 14.65269,-9.65746 5.34991,-2.28246 11.23873,-3.55199 17.05477,-3.55199 7.24131,0 14.14957,1.20553 20.77799,4.24007 4.11224,1.88257 7.87102,4.44927 11.28978,7.39254 16.98847,14.62562 20.42609,39.8121 9.52197,58.97728 -3.5014,6.15399 -8.61422,11.39149 -14.44623,15.36738 -11.06315,7.54216 -25.81072,9.95455 -38.6735,6.19697 -3.05544,-0.89259 -6.05564,-2.00109 -8.88769,-3.46252 -1.25941,-0.65002 -3.05461,-2.30659 -4.44385,-2.46474 -1.4051,-0.15996 -3.45251,1.04281 -4.80416,1.43189 -4.39136,1.26425 -8.74513,2.77252 -13.09134,4.18604 m 24.0208,-72.47842 c -2.23585,0.35918 -3.99285,2.42211 -5.26584,4.15014 -4.12713,5.60231 -3.75157,12.90323 -0.88576,18.9734 6.08699,12.89339 16.50277,23.5807 29.57189,29.21436 5.11126,2.20332 10.62716,4.49334 16.21404,2.72473 4.50582,-1.42637 8.1613,-4.3646 9.12742,-9.12297 0.21198,-1.04401 0.549,-2.6947 0.15157,-3.72215 -0.40211,-1.03945 -2.1286,-1.58175 -3.03358,-2.09284 -2.36113,-1.33378 -4.78074,-2.60884 -7.20625,-3.82146 -1.02809,-0.51396 -2.19273,-1.30616 -3.36291,-1.40018 -1.36558,-0.10964 -1.91578,0.84131 -2.69321,1.7901 -1.04719,1.27782 -2.17881,2.47651 -3.26106,3.72263 -0.80494,0.92694 -1.7062,1.99857 -3.05353,1.54849 -5.02035,-1.6771 -9.69275,-5.38604 -13.32974,-9.11383 -2.05126,-2.10245 -3.82567,-4.57091 -5.33442,-7.08501 -0.52558,-0.87602 -1.41459,-1.9467 -1.48593,-3.00212 -0.0747,-1.10682 1.08802,-1.94045 1.77238,-2.64187 1.26529,-1.2968 2.68913,-2.78957 3.238,-4.56322 0.53494,-1.7285 -1.07889,-4.27094 -1.66848,-5.88416 -0.77528,-2.12142 -1.50359,-4.26457 -2.33627,-6.3645 -0.39106,-0.98601 -0.72182,-2.15984 -1.63533,-2.80362 -1.11013,-0.78247 -4.2046,-0.71775 -5.52299,-0.50592 z"
       id="path885" />
  </g>
</svg>
